# xmcd CD database file
# Copyright (C) 1993-1998 Ti Kan
#
# Track frame offsets:
#	183
#	16233
#	33405
#	52395
#	68330
#	86533
#	106728
#	124550
#	144590
#	160828
#
# Disc length: 2371 seconds
#
# Revision: 1
# Processed by: cddbd v1.4b41PL1 Copyright (c) Steve Scherf et al.
# Submitted via: CDValet v3.31 - Copyright (c) 1997 Greg Leichner
#
DISCID=7909410a
DTITLE=Dara Buba Mara Show Band - Kosava Sa Dunava
DYEAR=1900
DGENRE=
TTITLE0=Kosava Sa Dunava
TTITLE1=Mesecina
TTITLE2=Kao Led Kao Zar
TTITLE3=Sele Moja
TTITLE4=Skolska Ljubav
TTITLE5=Nema Sanse
TTITLE6=Kunem Se
TTITLE7=Plamen Srece
TTITLE8=Zika
TTITLE9=Umiru Zore
EXTD=Schlapa
EXTT0=
EXTT1=
EXTT2=
EXTT3=
EXTT4=
EXTT5=
EXTT6=
EXTT7=
EXTT8=
EXTT9=
PLAYORDER=
